<svg t="1709392908438" class="icon" viewBox="0 0 1024 1024" version="1.1" xmlns="http://www.w3.org/2000/svg" p-id="40901" width="200" height="200"><path d="M731.4432 731.4432h48.7424v48.7424h-48.7424zM682.6496 780.1856h48.7936v48.7424h-48.7936zM926.464 780.1856h48.7936v48.7424h-48.7936zM877.7216 828.928h48.7424v48.7936h-48.7424z" fill="#012777" p-id="40902"></path><path d="M877.7216 780.1856h48.7424v48.7424h-48.7424z" fill="#375AA4" p-id="40903"></path><path d="M877.7216 731.4432h48.7424v48.7424h-48.7424zM828.928 877.7216h48.7936v48.7424h-48.7936z" fill="#012777" p-id="40904"></path><path d="M828.928 828.928h48.7936v48.7936h-48.7936z" fill="#375AA4" p-id="40905"></path><path d="M828.928 780.1856h48.7936v48.7424h-48.7936z" fill="#A2D8EA" p-id="40906"></path><path d="M828.928 731.4432h48.7936v48.7424h-48.7936z" fill="#A2D8EA" p-id="40907"></path><path d="M828.928 682.6496h48.7936v48.7936h-48.7936zM828.928 536.3712h48.7936v48.7936h-48.7936zM828.928 487.6288h48.7936v48.7424h-48.7936zM828.928 438.8352h48.7936v48.7936h-48.7936zM828.928 390.0928h48.7936v48.7424h-48.7936zM828.928 341.3504h48.7936v48.7424h-48.7936zM828.928 292.5568h48.7936v48.7936h-48.7936zM828.928 243.8144h48.7936v48.7424h-48.7936zM780.1856 926.464h48.7424v48.7936h-48.7424z" fill="#012777" p-id="40908"></path><path d="M780.1856 877.7216h48.7424v48.7424h-48.7424zM780.1856 828.928h48.7424v48.7936h-48.7424z" fill="#375AA4" p-id="40909"></path><path d="M780.1856 780.1856h48.7424v48.7424h-48.7424z" fill="#A2D8EA" p-id="40910"></path><path d="M780.1856 731.4432h48.7424v48.7424h-48.7424zM780.1856 585.1648h48.7424v48.7424h-48.7424z" fill="#012777" p-id="40911"></path><path d="M780.1856 536.3712h48.7424v48.7936h-48.7424zM780.1856 487.6288h48.7424v48.7424h-48.7424zM780.1856 438.8352h48.7424v48.7936h-48.7424zM780.1856 390.0928h48.7424v48.7424h-48.7424zM780.1856 341.3504h48.7424v48.7424h-48.7424zM780.1856 292.5568h48.7424v48.7936h-48.7424zM780.1856 243.8144h48.7424v48.7424h-48.7424z" fill="#DEE6FC" p-id="40912"></path><path d="M780.1856 195.072h48.7424v48.7424h-48.7424zM731.4432 877.7216h48.7424v48.7424h-48.7424z" fill="#012777" p-id="40913"></path><path d="M731.4432 828.928h48.7424v48.7936h-48.7424zM731.4432 780.1856h48.7424v48.7424h-48.7424z" fill="#A2D8EA" p-id="40914"></path><path d="M731.4432 633.9072h48.7424v48.7424h-48.7424z" fill="#012777" p-id="40915"></path><path d="M731.4432 585.1648h48.7424v48.7424h-48.7424z" fill="#DEE6FC" p-id="40916"></path><path d="M731.4432 536.3712h48.7424v48.7936h-48.7424zM731.4432 487.6288h48.7424v48.7424h-48.7424zM731.4432 438.8352h48.7424v48.7936h-48.7424zM731.4432 390.0928h48.7424v48.7424h-48.7424zM731.4432 341.3504h48.7424v48.7424h-48.7424zM731.4432 292.5568h48.7424v48.7936h-48.7424zM731.4432 243.8144h48.7424v48.7424h-48.7424z" fill="#DD75A1" p-id="40917"></path><path d="M731.4432 195.072h48.7424v48.7424h-48.7424z" fill="#DEE6FC" p-id="40918"></path><path d="M731.4432 146.2784h48.7424v48.7936h-48.7424zM682.6496 828.928h48.7936v48.7936h-48.7936zM682.6496 633.9072h48.7936v48.7424h-48.7936z" fill="#012777" p-id="40919"></path><path d="M682.6496 585.1648h48.7936v48.7424h-48.7936z" fill="#DEE6FC" p-id="40920"></path><path d="M682.6496 536.3712h48.7936v48.7936h-48.7936zM682.6496 487.6288h48.7936v48.7424h-48.7936zM682.6496 438.8352h48.7936v48.7936h-48.7936z" fill="#DD75A1" p-id="40921"></path><path d="M682.6496 390.0928h48.7936v48.7424h-48.7936z" fill="#012777" p-id="40922"></path><path d="M682.6496 341.3504h48.7936v48.7424h-48.7936zM682.6496 292.5568h48.7936v48.7936h-48.7936zM682.6496 243.8144h48.7936v48.7424h-48.7936z" fill="#DD75A1" p-id="40923"></path><path d="M682.6496 195.072h48.7936v48.7424h-48.7936z" fill="#DEE6FC" p-id="40924"></path><path d="M682.6496 146.2784h48.7936v48.7936h-48.7936zM633.9072 682.6496h48.7424v48.7936h-48.7424z" fill="#012777" p-id="40925"></path><path d="M633.9072 633.9072h48.7424v48.7424h-48.7424z" fill="#DEE6FC" p-id="40926"></path><path d="M633.9072 585.1648h48.7424v48.7424h-48.7424zM633.9072 536.3712h48.7424v48.7936h-48.7424zM633.9072 487.6288h48.7424v48.7424h-48.7424z" fill="#DD75A1" p-id="40927"></path><path d="M633.9072 438.8352h48.7424v48.7936h-48.7424z" fill="#012777" p-id="40928"></path><path d="M633.9072 390.0928h48.7424v48.7424h-48.7424z" fill="#DEE6FC" p-id="40929"></path><path d="M633.9072 341.3504h48.7424v48.7424h-48.7424z" fill="#012777" p-id="40930"></path><path d="M633.9072 292.5568h48.7424v48.7936h-48.7424zM633.9072 243.8144h48.7424v48.7424h-48.7424z" fill="#DD75A1" p-id="40931"></path><path d="M633.9072 195.072h48.7424v48.7424h-48.7424z" fill="#DD75A1" p-id="40932"></path><path d="M633.9072 146.2784h48.7424v48.7936h-48.7424z" fill="#DEE6FC" p-id="40933"></path><path d="M633.9072 97.536h48.7424v48.7424h-48.7424zM585.1648 682.6496h48.7424v48.7936h-48.7424z" fill="#012777" p-id="40934"></path><path d="M585.1648 633.9072h48.7424v48.7424h-48.7424z" fill="#DEE6FC" p-id="40935"></path><path d="M585.1648 585.1648h48.7424v48.7424h-48.7424zM585.1648 536.3712h48.7424v48.7936h-48.7424zM585.1648 487.6288h48.7424v48.7424h-48.7424z" fill="#DD75A1" p-id="40936"></path><path d="M585.1648 438.8352h48.7424v48.7936h-48.7424z" fill="#012777" p-id="40937"></path><path d="M585.1648 390.0928h48.7424v48.7424h-48.7424z" fill="#DEE6FC" p-id="40938"></path><path d="M585.1648 341.3504h48.7424v48.7424h-48.7424z" fill="#012777" p-id="40939"></path><path d="M585.1648 292.5568h48.7424v48.7936h-48.7424zM585.1648 243.8144h48.7424v48.7424h-48.7424z" fill="#DD75A1" p-id="40940"></path><path d="M585.1648 195.072h48.7424v48.7424h-48.7424z" fill="#DD75A1" p-id="40941"></path><path d="M585.1648 146.2784h48.7424v48.7936h-48.7424z" fill="#DEE6FC" p-id="40942"></path><path d="M585.1648 97.536h48.7424v48.7424h-48.7424zM536.3712 731.4432h48.7936v48.7424h-48.7936z" fill="#012777" p-id="40943"></path><path d="M536.3712 682.6496h48.7936v48.7936h-48.7936z" fill="#DEE6FC" p-id="40944"></path><path d="M536.3712 633.9072h48.7936v48.7424h-48.7936zM536.3712 585.1648h48.7936v48.7424h-48.7936z" fill="#DD75A1" p-id="40945"></path><path d="M536.3712 536.3712h48.7936v48.7936h-48.7936zM536.3712 487.6288h48.7936v48.7424h-48.7936z" fill="#012777" p-id="40946"></path><path d="M536.3712 438.8352h48.7936v48.7936h-48.7936z" fill="#DEE6FC" p-id="40947"></path><path d="M536.3712 390.0928h48.7936v48.7424h-48.7936z" fill="#DD75A1" p-id="40948"></path><path d="M536.3712 341.3504h48.7936v48.7424h-48.7936z" fill="#DEE6FC" p-id="40949"></path><path d="M536.3712 292.5568h48.7936v48.7936h-48.7936zM536.3712 243.8144h48.7936v48.7424h-48.7936z" fill="#012777" p-id="40950"></path><path d="M536.3712 195.072h48.7936v48.7424h-48.7936zM536.3712 146.2784h48.7936v48.7936h-48.7936z" fill="#DD75A1" p-id="40951"></path><path d="M536.3712 97.536h48.7936v48.7424h-48.7936z" fill="#DEE6FC" p-id="40952"></path><path d="M536.3712 48.7424h48.7936v48.7936h-48.7936zM487.6288 731.4432h48.7424v48.7424h-48.7424z" fill="#012777" p-id="40953"></path><path d="M487.6288 682.6496h48.7424v48.7936h-48.7424z" fill="#DEE6FC" p-id="40954"></path><path d="M487.6288 633.9072h48.7424v48.7424h-48.7424z" fill="#DD75A1" p-id="40955"></path><path d="M487.6288 585.1648h48.7424v48.7424h-48.7424z" fill="#012777" p-id="40956"></path><path d="M487.6288 536.3712h48.7424v48.7936h-48.7424zM487.6288 487.6288h48.7424v48.7424h-48.7424z" fill="#DEE6FC" p-id="40957"></path><path d="M487.6288 438.8352h48.7424v48.7936h-48.7424zM487.6288 390.0928h48.7424v48.7424h-48.7424zM487.6288 341.3504h48.7424v48.7424h-48.7424z" fill="#DD75A1" p-id="40958"></path><path d="M487.6288 292.5568h48.7424v48.7936h-48.7424zM487.6288 243.8144h48.7424v48.7424h-48.7424z" fill="#DEE6FC" p-id="40959"></path><path d="M487.6288 195.072h48.7424v48.7424h-48.7424z" fill="#012777" p-id="40960"></path><path d="M487.6288 146.2784h48.7424v48.7936h-48.7424z" fill="#DD75A1" p-id="40961"></path><path d="M487.6288 97.536h48.7424v48.7424h-48.7424z" fill="#DEE6FC" p-id="40962"></path><path d="M487.6288 48.7424h48.7424v48.7936h-48.7424zM438.8352 731.4432h48.7936v48.7424h-48.7936z" fill="#012777" p-id="40963"></path><path d="M438.8352 682.6496h48.7936v48.7936h-48.7936z" fill="#DEE6FC" p-id="40964"></path><path d="M438.8352 633.9072h48.7936v48.7424h-48.7936zM438.8352 585.1648h48.7936v48.7424h-48.7936z" fill="#DD75A1" p-id="40965"></path><path d="M438.8352 536.3712h48.7936v48.7936h-48.7936zM438.8352 487.6288h48.7936v48.7424h-48.7936z" fill="#012777" p-id="40966"></path><path d="M438.8352 438.8352h48.7936v48.7936h-48.7936z" fill="#DEE6FC" p-id="40967"></path><path d="M438.8352 390.0928h48.7936v48.7424h-48.7936z" fill="#DD75A1" p-id="40968"></path><path d="M438.8352 341.3504h48.7936v48.7424h-48.7936z" fill="#DEE6FC" p-id="40969"></path><path d="M438.8352 292.5568h48.7936v48.7936h-48.7936zM438.8352 243.8144h48.7936v48.7424h-48.7936z" fill="#012777" p-id="40970"></path><path d="M438.8352 195.072h48.7936v48.7424h-48.7936zM438.8352 146.2784h48.7936v48.7936h-48.7936z" fill="#DD75A1" p-id="40971"></path><path d="M438.8352 97.536h48.7936v48.7424h-48.7936z" fill="#DEE6FC" p-id="40972"></path><path d="M438.8352 48.7424h48.7936v48.7936h-48.7936zM390.0928 682.6496h48.7424v48.7936h-48.7424z" fill="#012777" p-id="40973"></path><path d="M390.0928 633.9072h48.7424v48.7424h-48.7424z" fill="#DEE6FC" p-id="40974"></path><path d="M390.0928 585.1648h48.7424v48.7424h-48.7424zM390.0928 536.3712h48.7424v48.7936h-48.7424zM390.0928 487.6288h48.7424v48.7424h-48.7424z" fill="#DD75A1" p-id="40975"></path><path d="M390.0928 438.8352h48.7424v48.7936h-48.7424z" fill="#012777" p-id="40976"></path><path d="M390.0928 390.0928h48.7424v48.7424h-48.7424z" fill="#DEE6FC" p-id="40977"></path><path d="M390.0928 341.3504h48.7424v48.7424h-48.7424z" fill="#012777" p-id="40978"></path><path d="M390.0928 292.5568h48.7424v48.7936h-48.7424zM390.0928 243.8144h48.7424v48.7424h-48.7424z" fill="#DD75A1" p-id="40979"></path><path d="M390.0928 195.072h48.7424v48.7424h-48.7424z" fill="#DD75A1" p-id="40980"></path><path d="M390.0928 146.2784h48.7424v48.7936h-48.7424z" fill="#DEE6FC" p-id="40981"></path><path d="M390.0928 97.536h48.7424v48.7424h-48.7424zM341.3504 682.6496h48.7424v48.7936h-48.7424z" fill="#012777" p-id="40982"></path><path d="M341.3504 633.9072h48.7424v48.7424h-48.7424z" fill="#DEE6FC" p-id="40983"></path><path d="M341.3504 585.1648h48.7424v48.7424h-48.7424zM341.3504 536.3712h48.7424v48.7936h-48.7424zM341.3504 487.6288h48.7424v48.7424h-48.7424z" fill="#DD75A1" p-id="40984"></path><path d="M341.3504 438.8352h48.7424v48.7936h-48.7424z" fill="#012777" p-id="40985"></path><path d="M341.3504 390.0928h48.7424v48.7424h-48.7424z" fill="#DEE6FC" p-id="40986"></path><path d="M341.3504 341.3504h48.7424v48.7424h-48.7424z" fill="#012777" p-id="40987"></path><path d="M341.3504 292.5568h48.7424v48.7936h-48.7424zM341.3504 243.8144h48.7424v48.7424h-48.7424z" fill="#DD75A1" p-id="40988"></path><path d="M341.3504 195.072h48.7424v48.7424h-48.7424z" fill="#DD75A1" p-id="40989"></path><path d="M341.3504 146.2784h48.7424v48.7936h-48.7424z" fill="#DEE6FC" p-id="40990"></path><path d="M341.3504 97.536h48.7424v48.7424h-48.7424zM292.5568 828.928h48.7936v48.7936h-48.7936zM292.5568 780.1856h48.7936v48.7424h-48.7936zM292.5568 633.9072h48.7936v48.7424h-48.7936z" fill="#012777" p-id="40991"></path><path d="M292.5568 585.1648h48.7936v48.7424h-48.7936z" fill="#DEE6FC" p-id="40992"></path><path d="M292.5568 536.3712h48.7936v48.7936h-48.7936zM292.5568 487.6288h48.7936v48.7424h-48.7936zM292.5568 438.8352h48.7936v48.7936h-48.7936z" fill="#DD75A1" p-id="40993"></path><path d="M292.5568 390.0928h48.7936v48.7424h-48.7936z" fill="#012777" p-id="40994"></path><path d="M292.5568 341.3504h48.7936v48.7424h-48.7936zM292.5568 292.5568h48.7936v48.7936h-48.7936zM292.5568 243.8144h48.7936v48.7424h-48.7936z" fill="#DD75A1" p-id="40995"></path><path d="M292.5568 195.072h48.7936v48.7424h-48.7936z" fill="#DEE6FC" p-id="40996"></path><path d="M292.5568 146.2784h48.7936v48.7936h-48.7936zM243.8144 877.7216h48.7424v48.7424h-48.7424z" fill="#012777" p-id="40997"></path><path d="M243.8144 828.928h48.7424v48.7936h-48.7424zM243.8144 780.1856h48.7424v48.7424h-48.7424z" fill="#A2D8EA" p-id="40998"></path><path d="M243.8144 731.4432h48.7424v48.7424h-48.7424zM243.8144 633.9072h48.7424v48.7424h-48.7424z" fill="#012777" p-id="40999"></path><path d="M243.8144 585.1648h48.7424v48.7424h-48.7424z" fill="#DEE6FC" p-id="41000"></path><path d="M243.8144 536.3712h48.7424v48.7936h-48.7424zM243.8144 487.6288h48.7424v48.7424h-48.7424zM243.8144 438.8352h48.7424v48.7936h-48.7424zM243.8144 390.0928h48.7424v48.7424h-48.7424zM243.8144 341.3504h48.7424v48.7424h-48.7424zM243.8144 292.5568h48.7424v48.7936h-48.7424zM243.8144 243.8144h48.7424v48.7424h-48.7424z" fill="#DD75A1" p-id="41001"></path><path d="M243.8144 195.072h48.7424v48.7424h-48.7424z" fill="#DEE6FC" p-id="41002"></path><path d="M243.8144 146.2784h48.7424v48.7936h-48.7424zM195.072 926.464h48.7424v48.7936H195.072z" fill="#012777" p-id="41003"></path><path d="M195.072 877.7216h48.7424v48.7424H195.072zM195.072 828.928h48.7424v48.7936H195.072z" fill="#375AA4" p-id="41004"></path><path d="M195.072 780.1856h48.7424v48.7424H195.072z" fill="#A2D8EA" p-id="41005"></path><path d="M195.072 731.4432h48.7424v48.7424H195.072zM195.072 585.1648h48.7424v48.7424H195.072z" fill="#012777" p-id="41006"></path><path d="M195.072 536.3712h48.7424v48.7936H195.072zM195.072 487.6288h48.7424v48.7424H195.072zM195.072 438.8352h48.7424v48.7936H195.072zM195.072 390.0928h48.7424v48.7424H195.072zM195.072 341.3504h48.7424v48.7424H195.072zM195.072 292.5568h48.7424v48.7936H195.072zM195.072 243.8144h48.7424v48.7424H195.072z" fill="#DEE6FC" p-id="41007"></path><path d="M195.072 195.072h48.7424v48.7424H195.072zM146.2784 877.7216h48.7936v48.7424h-48.7936z" fill="#012777" p-id="41008"></path><path d="M146.2784 828.928h48.7936v48.7936h-48.7936z" fill="#375AA4" p-id="41009"></path><path d="M146.2784 780.1856h48.7936v48.7424h-48.7936z" fill="#A2D8EA" p-id="41010"></path><path d="M146.2784 731.4432h48.7936v48.7424h-48.7936z" fill="#A2D8EA" p-id="41011"></path><path d="M146.2784 682.6496h48.7936v48.7936h-48.7936zM146.2784 536.3712h48.7936v48.7936h-48.7936zM146.2784 487.6288h48.7936v48.7424h-48.7936zM146.2784 438.8352h48.7936v48.7936h-48.7936zM146.2784 390.0928h48.7936v48.7424h-48.7936zM146.2784 341.3504h48.7936v48.7424h-48.7936zM146.2784 292.5568h48.7936v48.7936h-48.7936zM146.2784 243.8144h48.7936v48.7424h-48.7936zM97.536 828.928h48.7424v48.7936h-48.7424z" fill="#012777" p-id="41012"></path><path d="M97.536 780.1856h48.7424v48.7424h-48.7424z" fill="#375AA4" p-id="41013"></path><path d="M97.536 731.4432h48.7424v48.7424h-48.7424zM48.7424 780.1856h48.7936v48.7424H48.7424z" fill="#012777" p-id="41014"></path></svg>